<?xml version="1.0" encoding="UTF-8"?>
<!-- source -->
<!-- https://www.reshot.com/free-svg-icons/item/charity-TCMXZ2BDUE/ -->
<svg xmlns="http://www.w3.org/2000/svg" viewBox="0 0 511.997 511.997" style="enable-background:new 0 0 511.997 511.997" xml:space="preserve"><path style="fill:#ecce93" d="M307.779 174.904h-.012a38.189 38.189 0 0 0-2.068-.061c-20.272 0-36.703 16.431-36.703 36.703l44.043 3.67-5.26-40.312z"/><path style="fill:#ecce93" d="M352.067 151.659a36.494 36.494 0 0 0-9.665-1.285c-16.002 0-29.607 10.24-34.623 24.53a36.436 36.436 0 0 0-2.08 12.173v24.468l36.69 11.757.012-.012 18.36-67.99a36.67 36.67 0 0 0-8.694-3.641z"/><path style="fill:#e1b872" d="M400.698 157.398a36.514 36.514 0 0 0-21.593-7.022c-6.68 0-12.956 1.786-18.351 4.93-10.974 6.337-18.351 18.192-18.351 31.772v36.213l-.012.012h-88.38v98.351h134.882V211.546l24.97-36.274a36.84 36.84 0 0 0-13.165-17.874z"/><path style="opacity:.8;fill:#d5a150;enable-background:new" d="M400.698 157.398a36.514 36.514 0 0 0-21.593-7.022c-6.68 0-12.956 1.786-18.351 4.93-10.974 6.337-18.351 18.192-18.351 31.772v36.213l-.012.012h-88.38v98.351h134.882V211.546l24.97-36.274a36.84 36.84 0 0 0-13.165-17.874z"/><path style="fill:#d5a150" d="M420.505 174.855a37.258 37.258 0 0 0-6.643.416c-17.605 2.704-31.087 17.911-31.087 36.274v36.703c0 17.837-6.974 34.084-18.351 46.135-12.283 13.017-29.68 21.153-48.937 21.153h-2.104c-16.81 0-34.341-5.187-48.068-14.473a83.486 83.486 0 0 1 49.292-16.112h.184c19.762 0 36.514-15.342 37.364-35.085.442-10.261-3.346-19.653-9.765-26.563a24.244 24.244 0 0 0-.954-1.003c-6.643-6.643-15.819-10.754-25.949-10.754H229.848c-1.089.024-2.178.049-3.254.098-66.835 2.838-119.088 58.871-119.088 125.768a50.61 50.61 0 0 1-14.816 35.76l-26.931 26.931c-8.661 8.661-8.667 22.636-.127 31.416.888.914 1.785 1.823 2.688 2.726 28.879 28.879 63.291 50.214 100.847 63.02 7.989 2.725 16.837.571 22.805-5.397 15.574-15.574 34.831-26.952 55.996-32.983 64.119-18.266 121.669-52.668 169.86-100.296 12.369-13.103 21.948-28.224 28.445-44.581 6.509-16.345 9.91-33.913 9.91-51.922V212.305c-.003-19.992-15.687-36.899-35.678-37.45z"/><path style="opacity:.8;fill:#d5a150;enable-background:new" d="M308.238 178.417c-12.355 5.908-20.89 18.519-20.89 33.129l25.49 2.124-4.6-35.253zM360.762 156.206c-.018-.011-.038-.02-.055-.029-15.982.021-29.565 10.252-34.576 24.527a36.436 36.436 0 0 0-2.08 12.173v24.468l18.592 5.958 18.119-67.097z"/><path style="opacity:.8;fill:#ecce93;enable-background:new" d="M366.87 235.512v-48.435c0-13.58 7.377-25.435 18.351-31.772a36.23 36.23 0 0 1 6.107-2.824 37.09 37.09 0 0 1 4.868 2.12 36.517 36.517 0 0 0-17.092-4.227c-6.68 0-12.956 1.786-18.351 4.93-10.974 6.337-18.351 18.192-18.351 31.772v36.213l-.012 36.715c13.522-.005 24.48-10.969 24.48-24.492z"/><path style="fill:#ecce93" d="M342.39 223.302a24.244 24.244 0 0 0-.954-1.003c-6.643-6.643-15.819-10.754-25.949-10.754H229.848c-1.089.024-2.178.049-3.254.098-66.835 2.838-119.088 58.871-119.088 125.768a50.61 50.61 0 0 1-14.816 35.76l-26.931 26.931c-8.661 8.661-8.667 22.636-.127 31.416.888.914 1.785 1.823 2.688 2.726a267.585 267.585 0 0 0 7.771 7.431l42.553-42.553a86.83 86.83 0 0 0 18.912-28.3 86.797 86.797 0 0 0 6.653-33.413c0-47.962 36.873-87.098 84.053-89.103.657-.029 1.32-.045 1.984-.06h101.199c12.828 0 19.79-15.288 11.128-24.749-.061-.063-.122-.129-.183-.195zM436.455 179.104c-21.678 4.651-24.93 18.918-24.93 41.09v28.055l-.002.644c-.235 31.03-36.015 56.944-66.812 60.744l-2.339.289a67.627 67.627 0 0 0 22.052-15.54c11.378-12.051 18.351-28.298 18.351-46.135v-36.703c0-18.364 13.482-33.571 31.087-36.274 2.153-.33 4.38-.477 6.643-.416a35.652 35.652 0 0 1 15.95 4.246z"/><path style="fill:#9e7325" d="m318.564 45.275-25.699-25.698-51.398 51.398-51.398 51.397 25.699 25.699c18.924 18.924 57.277 11.254 85.664-17.133s36.055-66.739 17.132-85.663z"/><path style="opacity:.3;fill:#80531a;enable-background:new" d="m318.564 45.275-25.699-25.698-51.398 51.398 59.965 59.963c28.386-28.386 36.055-66.739 17.132-85.663z"/><ellipse transform="rotate(-45.001 241.467 70.973)" style="fill:#d9b43a" cx="241.467" cy="70.969" rx="72.683" ry="48.458"/><path style="opacity:.3;fill:#80531a;enable-background:new" d="M217.653 105.226c-2.646 0-6.203-.403-8.121-2.32-5.021-5.021-3.528-26.071 17.134-46.733 11.816-11.816 26.973-19.451 38.614-19.451 2.646 0 6.204.403 8.121 2.32 5.023 5.022 3.53 26.072-17.133 46.735-11.817 11.814-26.974 19.449-38.615 19.449z"/><path d="m62.305 416.534 36.876-36.876c11.286-11.287 17.501-26.291 17.501-42.252 0-62.753 48.449-113.968 110.301-116.596.98-.042 1.961-.072 2.945-.089h85.56c15.178 0 27.527 12.349 27.527 27.527s-12.349 27.527-27.527 27.527h-.876c-19.8 0-38.719 6.183-54.717 17.882l-.007.005h-.001l-.007.006a93.577 93.577 0 0 0-10.828 9.263 9.175 9.175 0 0 0-.247 12.719 9.175 9.175 0 0 0 12.7.743l4.688-4.01c14.029 7.889 30.858 12.33 47.196 12.33h2.099c20.935 0 41.205-8.758 55.612-24.03 13.447-14.254 20.852-32.876 20.852-52.433v-36.703c0-7.496 2.959-14.502 8.334-19.731 5.371-5.225 12.464-7.999 19.972-7.785 14.75.405 26.748 13.091 26.748 28.279v49.777c0 33.607-12.697 65.597-35.751 90.096-47.82 47.226-103.6 80.156-165.8 97.881-22.559 6.43-43.296 18.641-59.966 35.313l-10.961 10.959a9.173 9.173 0 0 0-.001 12.976 9.147 9.147 0 0 0 6.489 2.688 9.148 9.148 0 0 0 6.488-2.687l10.962-10.961c14.468-14.469 32.456-25.064 52.02-30.641 65.251-18.595 123.722-53.111 173.788-102.592.076-.076.15-.152.225-.23 26.349-27.933 40.86-64.442 40.86-102.803v-49.777c0-25.034-20.007-45.95-44.595-46.623-.355-.01-.706-.001-1.058-.002a45.869 45.869 0 0 0-40.598-24.484 45.605 45.605 0 0 0-18.354 3.843 45.935 45.935 0 0 0-18.349-3.843c-17.641 0-32.977 10.014-40.652 24.649-20.38 1.747-36.999 16.862-41.005 36.522h-30.897l-.161.001c-1.167.021-2.331.055-3.488.105-34.634 1.471-66.913 16.292-90.892 41.736-23.844 25.302-36.978 58.397-36.978 93.194 0 11.059-4.308 21.455-12.127 29.275L49.33 403.56a9.177 9.177 0 0 0 0 12.977c3.581 3.579 9.39 3.579 12.975-.003zM400.49 169.759a45.891 45.891 0 0 0-13.003 8.903c-8.955 8.713-13.888 20.392-13.888 32.884v36.703c0 14.857-5.629 29.006-15.849 39.841-11.116 11.783-26.125 18.272-42.263 18.272h-2.099c-9.933 0-20.069-2.014-29.281-5.702 9.522-4.302 19.855-6.532 30.505-6.532h.876c25.298 0 45.878-20.58 45.878-45.878 0-10.661-3.665-20.475-9.787-28.273v-32.898c0-15.178 12.349-27.527 27.527-27.527 8.479-.001 16.26 3.884 21.384 10.207zm-58.088-10.208.024.001a45.637 45.637 0 0 0-9.2 27.526v18.864a45.626 45.626 0 0 0-17.74-3.571h-.612v-15.293c.001-15.179 12.35-27.527 27.528-27.527zm-45.84 26.033c-.016.497-.038.992-.038 1.493v15.293h-16.773a27.659 27.659 0 0 1 16.811-16.786zM183.58 128.861l25.7 25.699c8.615 8.615 20.377 13.088 33.943 13.088 4.369 0 8.93-.465 13.629-1.404 17.935-3.587 36.071-13.821 51.068-28.818 14.995-14.995 25.229-33.133 28.816-51.068 3.856-19.286-.292-36.179-11.684-47.571l-25.699-25.699C287.96 1.695 271.064-2.451 251.781 1.403c-17.935 3.588-36.071 13.822-51.068 28.818-14.995 14.997-25.229 33.133-28.816 51.068-3.853 19.263.284 36.139 11.646 47.531.012.013.023.028.037.041zm30.11-85.665c12.462-12.463 27.268-20.914 41.69-23.798 13.076-2.616 24.083-.247 30.995 6.666 9.508 9.507 10.26 26.921 1.961 45.445a9.176 9.176 0 0 0 16.747 7.503c4.14-9.24 6.493-18.428 7.119-27.109 14.876 15.119 7.01 48.275-17.261 72.546-24.253 24.257-57.386 32.127-72.517 17.287a72.573 72.573 0 0 0 8.727-1.193 9.177 9.177 0 0 0 7.199-10.797c-.993-4.968-5.827-8.183-10.797-7.199-13.065 2.613-24.066.251-30.979-6.649l-.016-.016-.006-.006c-15.048-15.059-7.202-48.339 17.138-72.68z"/><path d="M255.91 130.057c1.62 0 3.262-.429 4.748-1.331a108.896 108.896 0 0 0 5.596-3.632A9.177 9.177 0 0 0 255.8 110.01a91.378 91.378 0 0 1-4.655 3.023 9.172 9.172 0 0 0-3.089 12.602 9.166 9.166 0 0 0 7.854 4.422z"/></svg>